<svg width="17" height="18" viewBox="0 0 17 18" fill="none" xmlns="http://www.w3.org/2000/svg">
<path d="M5.48741 6.91675L12.4318 8.84572L9.80372 13.2263C9.80372 13.2263 9.80372 13.2263 9.80371 13.2263C9.75067 13.3147 9.72265 13.4158 9.72265 13.5189C9.72265 15.4936 11.329 17.1 13.3038 17.1C15.2786 17.1 16.885 15.4936 16.885 13.5189C16.885 13.4158 16.8569 13.3146 16.8039 13.2263L16.7182 13.2777L16.8039 13.2263L14.5247 9.42704L16.1641 9.88242C16.2148 9.89653 16.2661 9.90329 16.3166 9.90329C16.5657 9.90329 16.7943 9.73851 16.8643 9.48666L16.8643 9.48663C16.9483 9.184 16.7712 8.87049 16.4685 8.78643L13.4508 7.94819L9.35391 6.81021V1.57819C9.35391 1.43938 9.32885 1.27339 9.24428 1.13881C9.1555 0.99753 9.00635 0.9 8.78516 0.9C8.66256 0.9 8.56046 0.930984 8.47814 0.987249C8.39645 1.04308 8.34063 1.1194 8.30263 1.20028C8.22814 1.35882 8.21641 1.54746 8.21641 1.67977V6.49424L4.41346 5.43788L1.40627 4.60255C1.10366 4.51844 0.790107 4.69568 0.706013 4.99832L0.706007 4.99834C0.62199 5.30098 0.799121 5.61448 1.10182 5.69855C1.10182 5.69855 1.10182 5.69855 1.10182 5.69855L3.39446 6.3354L0.766411 10.7159C0.766405 10.7159 0.766399 10.7159 0.766393 10.7159C0.713361 10.8043 0.685333 10.9054 0.685394 11.0085C0.685394 11.0085 0.685394 11.0085 0.685394 11.0085L0.785394 11.0085C0.785332 11.9383 1.14742 12.8125 1.80495 13.47C2.46252 14.1276 3.3367 14.4897 4.26654 14.4897C6.18604 14.4897 7.74769 12.9281 7.74769 11.0085C7.74769 10.9236 7.72457 10.8402 7.68088 10.7674L5.48741 6.91675ZM15.6802 14.0876C15.4231 15.1616 14.4552 15.9625 13.3038 15.9625C12.1524 15.9625 11.1845 15.1616 10.9275 14.0876H15.6802ZM11.2958 12.9501L13.3038 9.60316L15.3118 12.9501H11.2958ZM6.27452 10.4397H2.25851L4.26654 7.09284L6.27452 10.4397ZM4.26648 13.4522C3.1151 13.4522 2.1472 12.6513 1.89011 11.5773H6.64288C6.38578 12.6513 5.41783 13.4522 4.26648 13.4522Z" fill="#003466" stroke="#003466" stroke-width="0.2"/>
</svg>
